<?xml version="1.0" encoding="UTF-8"?>
<svg width="1000" height="1000" viewBox="0 0 1000 1000" xmlns="http://www.w3.org/2000/svg">
  <defs>
    <!-- Filter for a subtle glow effect -->
    <filter id="glow" x="-20%" y="-20%" width="140%" height="140%">
      <feGaussianBlur stdDeviation="8" result="blur" />
      <feComposite in="SourceGraphic" in2="blur" operator="over" />
    </filter>
    
    <!-- Animations -->
    <animate id="float1" attributeName="transform" attributeType="XML" type="translate" 
      values="0,0; 0,15; 0,0; 0,-10; 0,0" dur="20s" repeatCount="indefinite" />
    <animate id="float2" attributeName="transform" attributeType="XML" type="translate" 
      values="0,0; 10,10; 0,0; -10,10; 0,0" dur="16s" repeatCount="indefinite" />
    <animate id="float3" attributeName="transform" attributeType="XML" type="translate" 
      values="0,0; -10,5; 0,0; 10,5; 0,0" dur="24s" repeatCount="indefinite" />
      
    <!-- Blob merging/separation animations -->
    <animate id="blobMerge1" attributeName="d" 
      dur="18s"
      values="M400,300 C430,270 470,280 490,310 C510,340 500,380 470,390 C440,400 410,390 400,360 C390,330 370,330 400,300Z;
              M400,300 C440,270 470,280 505,310 C540,340 550,380 505,390 C460,400 430,390 400,360 C370,330 360,330 400,300Z;
              M400,300 C430,270 470,280 490,310 C510,340 500,380 470,390 C440,400 410,390 400,360 C390,330 370,330 400,300Z"
      repeatCount="indefinite"
      calcMode="spline"
      keySplines="0.5 0 0.5 1; 0.5 0 0.5 1" />
      
    <animate id="blobMerge2" attributeName="d" 
      dur="18s"
      values="M530,300 C560,270 600,280 620,310 C640,340 630,380 600,390 C570,400 540,390 530,360 C520,330 500,330 530,300Z;
              M525,300 C540,270 560,280 570,310 C580,340 570,380 540,390 C510,400 500,390 510,360 C520,330 510,330 525,300Z;
              M530,300 C560,270 600,280 620,310 C640,340 630,380 600,390 C570,400 540,390 530,360 C520,330 500,330 530,300Z"
      repeatCount="indefinite"
      calcMode="spline"
      keySplines="0.5 0 0.5 1; 0.5 0 0.5 1" />
  </defs>
  
  <!-- Large blob in the top left -->
  <path d="M-50,100 C50,50 100,150 150,100 C200,50 250,100 200,200 C150,300 100,250 50,300 C0,350 -50,300 -50,250 C-50,200 -100,150 -50,100Z" 
        fill="#D22B2B" fill-opacity="0.18" filter="url(#glow)">
    <animateTransform attributeName="transform" attributeType="XML" type="translate" 
      values="0,0; 5,10; 0,0; -5,10; 0,0" dur="16s" repeatCount="indefinite" />
  </path>
  
  <!-- Medium blob center left -->
  <path d="M-30,400 C20,350 70,380 100,450 C130,520 80,550 30,550 C-20,550 -70,520 -60,470 C-50,420 -80,450 -30,400Z" 
        fill="#D22B2B" fill-opacity="0.15" filter="url(#glow)">
    <animateTransform attributeName="transform" attributeType="XML" type="translate" 
      values="0,0; 10,5; 0,0; 10,-5; 0,0" dur="18s" repeatCount="indefinite" />
  </path>
  
  <!-- Medium blob top right -->
  <path d="M750,0 C800,-30 850,20 880,70 C910,120 880,170 830,150 C780,130 750,180 720,130 C690,80 700,30 750,0Z" 
        fill="#D22B2B" fill-opacity="0.12" filter="url(#glow)">
    <animateTransform attributeName="transform" attributeType="XML" type="translate" 
      values="0,0; -10,10; 0,0; -5,-10; 0,0" dur="17s" repeatCount="indefinite" />
  </path>
  
  <!-- Small blob top center -->
  <path d="M400,50 C430,20 470,30 490,60 C510,90 500,130 470,140 C440,150 410,140 400,110 C390,80 370,80 400,50Z" 
        fill="#801a1a" fill-opacity="0.2" filter="url(#glow)">
    <animateTransform attributeName="transform" attributeType="XML" type="translate" 
      values="0,0; 5,15; 0,0; -10,5; 0,0" dur="15s" repeatCount="indefinite" />
  </path>
  
  <!-- SPECIAL: Merging blobs - Blob 1 -->
  <path d="M400,300 C430,270 470,280 490,310 C510,340 500,380 470,390 C440,400 410,390 400,360 C390,330 370,330 400,300Z" 
        fill="#D22B2B" fill-opacity="0.25" filter="url(#glow)">
    <animate xlink:href="#blobMerge1" />
    <animateTransform attributeName="transform" attributeType="XML" type="translate" 
      values="0,0; -15,0; 0,0; -15,0; 0,0" dur="18s" repeatCount="indefinite" />
  </path>
  
  <!-- SPECIAL: Merging blobs - Blob 2 -->
  <path d="M530,300 C560,270 600,280 620,310 C640,340 630,380 600,390 C570,400 540,390 530,360 C520,330 500,330 530,300Z" 
        fill="#D22B2B" fill-opacity="0.25" filter="url(#glow)">
    <animate xlink:href="#blobMerge2" />
    <animateTransform attributeName="transform" attributeType="XML" type="translate" 
      values="0,0; 15,0; 0,0; 15,0; 0,0" dur="18s" repeatCount="indefinite" />
  </path>
  
  <!-- Small blob middle right -->
  <path d="M800,300 C830,270 870,280 890,310 C910,340 900,380 870,390 C840,400 810,390 800,360 C790,330 770,330 800,300Z" 
        fill="#801a1a" fill-opacity="0.15" filter="url(#glow)">
    <animateTransform attributeName="transform" attributeType="XML" type="translate" 
      values="0,0; -15,0; 0,0; -5,10; 0,0" dur="22s" repeatCount="indefinite" />
  </path>
  
  <!-- Large blob bottom right -->
  <path d="M700,600 C750,550 850,580 900,650 C950,720 900,800 800,820 C700,840 650,780 620,700 C590,620 650,650 700,600Z" 
        fill="#D22B2B" fill-opacity="0.1" filter="url(#glow)">
    <animateTransform attributeName="transform" attributeType="XML" type="translate" 
      values="0,0; 10,-10; 0,0; 10,10; 0,0" dur="25s" repeatCount="indefinite" />
  </path>
  
  <!-- Medium blob bottom left -->
  <path d="M100,700 C150,650 250,680 280,750 C310,820 260,870 180,860 C100,850 50,810 50,750 C50,690 50,750 100,700Z" 
        fill="#801a1a" fill-opacity="0.13" filter="url(#glow)">
    <animateTransform attributeName="transform" attributeType="XML" type="translate" 
      values="0,0; 15,5; 0,0; 5,-10; 0,0" dur="20s" repeatCount="indefinite" />
  </path>
  
  <!-- Small floating bubbles -->
  <circle cx="350" cy="200" r="30" fill="#D22B2B" fill-opacity="0.25" filter="url(#glow)">
    <animateTransform attributeName="transform" attributeType="XML" type="translate" 
      values="0,0; 0,20; 0,0; 0,-15; 0,0" dur="12s" repeatCount="indefinite" />
  </circle>
  <circle cx="600" cy="300" r="20" fill="#D22B2B" fill-opacity="0.2" filter="url(#glow)">
    <animateTransform attributeName="transform" attributeType="XML" type="translate" 
      values="0,0; 0,15; 0,0; 0,-10; 0,0" dur="14s" repeatCount="indefinite" />
  </circle>
  <circle cx="700" cy="450" r="25" fill="#D22B2B" fill-opacity="0.15" filter="url(#glow)">
    <animateTransform attributeName="transform" attributeType="XML" type="translate" 
      values="0,0; 0,10; 0,0; 0,-15; 0,0" dur="16s" repeatCount="indefinite" />
  </circle>
  <circle cx="250" cy="500" r="15" fill="#D22B2B" fill-opacity="0.2" filter="url(#glow)">
    <animateTransform attributeName="transform" attributeType="XML" type="translate" 
      values="0,0; 0,12; 0,0; 0,-8; 0,0" dur="13s" repeatCount="indefinite" />
  </circle>
  <circle cx="500" cy="600" r="22" fill="#D22B2B" fill-opacity="0.18" filter="url(#glow)">
    <animateTransform attributeName="transform" attributeType="XML" type="translate" 
      values="0,0; 0,18; 0,0; 0,-12; 0,0" dur="17s" repeatCount="indefinite" />
  </circle>
</svg> 